<svg width="24" height="24" viewBox="0 0 24 24" fill="none" xmlns="http://www.w3.org/2000/svg">
<path d="M4 12H6M18 12H20M0.5 16.5V20H1C1.99535 19.8415 2.99597 19.7181 4 19.63M0.5 16.5H1C1.79565 16.5 2.55871 16.8161 3.12132 17.3787C3.68393 17.9413 4 18.7044 4 19.5V19.63M0.5 16.5V7.5M4 19.63C6.66014 19.3909 9.32918 19.2642 12 19.25C14.134 19.25 17.281 19.377 20 19.63M0.5 7.5V4H1C1.99535 4.15845 2.99597 4.28186 4 4.37M0.5 7.5H1C1.79565 7.5 2.55871 7.18393 3.12132 6.62132C3.68393 6.05871 4 5.29565 4 4.5V4.37M20 19.63C21.004 19.7181 22.0046 19.8415 23 20H23.5V16.5M20 19.63V19.5C20 18.7044 20.3161 17.9413 20.8787 17.3787C21.4413 16.8161 22.2044 16.5 23 16.5H23.5M23.5 16.5V7.5M23.5 7.5V4H23C22.0046 4.15845 21.004 4.28186 20 4.37M23.5 7.5H23C22.2044 7.5 21.4413 7.18393 20.8787 6.62132C20.3161 6.05871 20 5.29565 20 4.5V4.37M20 4.37C17.3399 4.60907 14.6708 4.73585 12 4.75C9.32918 4.73585 6.66014 4.60907 4 4.37M12 14.5C11.337 14.5 10.7011 14.2366 10.2322 13.7678C9.76339 13.2989 9.5 12.663 9.5 12C9.5 11.337 9.76339 10.7011 10.2322 10.2322C10.7011 9.76339 11.337 9.5 12 9.5C12.663 9.5 13.2989 9.76339 13.7678 10.2322C14.2366 10.7011 14.5 11.337 14.5 12C14.5 12.663 14.2366 13.2989 13.7678 13.7678C13.2989 14.2366 12.663 14.5 12 14.5Z" stroke="#222222"/>
</svg>
