<svg width="37" height="37" viewBox="0 0 37 37" fill="none" xmlns="http://www.w3.org/2000/svg">
<g clip-path="url(#clip0_2_50060)">
<path d="M4.00704 1.01929C2.6711 1.38492 1.62344 2.36226 1.15938 3.68414L0.962507 4.25367V18.8435C0.962507 34.9169 0.927351 33.7427 1.39844 34.713C1.71485 35.3669 2.50938 36.1615 3.16329 36.4779C4.09141 36.9209 3.94376 36.9138 9.4211 36.9138C15.032 36.9138 14.7367 36.9419 15.0602 36.3865C15.2852 36.0138 15.2922 35.5849 15.0813 35.2193C14.7719 34.6638 15.1516 34.706 9.6461 34.6638L4.72423 34.6287L4.32344 34.4318C3.87344 34.2138 3.61329 33.9396 3.39532 33.4685C3.25469 33.1591 3.24766 33.0326 3.22657 29.4044L3.20548 25.6638H11.4602H19.7148L19.9469 25.5091C20.3477 25.2349 20.4742 25.0029 20.4742 24.5388C20.4742 24.0748 20.3477 23.8427 19.9469 23.5755L19.7148 23.4138H11.4672H3.21251V18.9138V14.4138H14.4625H25.7125V15.5529C25.7125 16.8466 25.7547 16.9732 26.2539 17.2755C26.7672 17.5849 27.4844 17.4162 27.8219 16.9029C27.9555 16.706 27.9625 16.5162 27.9625 10.5466C27.9625 3.77554 27.9766 4.05679 27.5266 3.1146C27.2172 2.47476 26.4156 1.66617 25.7828 1.35679C24.8195 0.8857 25.5227 0.913826 14.4274 0.920856C6.03204 0.920856 4.30938 0.941948 4.00704 1.01929ZM24.6016 3.39585C25.0516 3.61382 25.3117 3.88804 25.5297 4.35914C25.6703 4.66851 25.6773 4.79507 25.6984 8.41617L25.7195 12.1638H14.4625H3.20548L3.22657 8.41617C3.24766 5.00601 3.26173 4.64742 3.37423 4.40133C3.65548 3.76851 4.14766 3.3607 4.76641 3.24117C4.93516 3.20601 9.37891 3.18492 14.6383 3.18492L24.2008 3.19898L24.6016 3.39585Z" fill="#FF9800"/>
<path d="M7.81764 7.02378C7.02311 7.38941 6.71374 8.3105 7.11452 9.1191C7.38171 9.64644 7.7403 9.87144 8.37311 9.89956C9.01296 9.92769 9.39968 9.74488 9.73718 9.23863C9.96218 8.90816 9.97624 8.86597 9.94811 8.35972C9.93405 7.90972 9.89889 7.78316 9.72311 7.53706C9.32936 6.9605 8.45749 6.72847 7.81764 7.02378Z" fill="#FF9800"/>
<path d="M13.9 6.96747C12.6625 7.48779 12.6062 9.19638 13.8086 9.80107C14.132 9.96279 14.8211 9.94872 15.1586 9.77294C16.1851 9.25263 16.2695 7.81122 15.3203 7.14326C15.0671 6.96747 14.9406 6.92529 14.5468 6.91122C14.2867 6.89716 13.9984 6.92529 13.9 6.96747Z" fill="#FF9800"/>
<path d="M19.7569 7.0667C19.5319 7.1792 19.328 7.35499 19.2015 7.5378C19.0187 7.79795 18.9976 7.88233 18.9976 8.40967C18.9976 8.93702 19.0187 9.01436 19.2085 9.28858C19.328 9.4503 19.5601 9.66124 19.7358 9.75264C20.003 9.9003 20.1296 9.92139 20.5515 9.9003C21.1843 9.87217 21.5429 9.64717 21.8101 9.11983C22.4851 7.7628 21.114 6.3917 19.7569 7.0667Z" fill="#FF9800"/>
<path d="M31.6538 18.2391C31.4991 18.2883 31.2601 18.3867 31.1265 18.45C30.8382 18.5977 19.4968 29.8898 19.3421 30.1852C19.2226 30.4102 18.189 35.4867 18.189 35.8453C18.189 36.4359 18.6812 36.9141 19.2858 36.9141C19.7569 36.9141 24.5593 35.9508 24.9038 35.7891C25.0937 35.6977 27.0202 33.8133 30.8593 29.9742C37.2858 23.5406 36.9062 23.9836 36.9483 22.8164C36.9694 22.2961 36.9483 22.1063 36.8147 21.7617C36.6741 21.382 36.5265 21.2063 35.3171 19.9828C33.714 18.3656 33.4397 18.1898 32.4976 18.1617C32.1741 18.1477 31.8155 18.1828 31.6538 18.2391ZM33.5663 21.5297C34.1569 22.1203 34.6421 22.6547 34.6421 22.7109C34.6421 22.7672 32.1812 25.2773 29.1788 28.2797L23.7085 33.743L22.2882 34.0172C21.3249 34.2 20.8608 34.2633 20.8608 34.207C20.8608 34.1648 20.9874 33.4969 21.1421 32.7234L21.4233 31.3242L26.8585 25.8891C29.8397 22.9078 32.3358 20.4609 32.3921 20.4609C32.4483 20.4609 32.9757 20.9461 33.5663 21.5297Z" fill="#FF9800"/>
</g>
<defs>
<clipPath id="clip0_2_50060">
<rect width="36" height="36" fill="white" transform="translate(0.962402 0.914062)"/>
</clipPath>
</defs>
</svg>
